<svg width="137" height="34" viewBox="0 0 137 34" fill="none" xmlns="http://www.w3.org/2000/svg">
<path d="M72.216 8.752C73.816 8.752 75.224 9.1253 76.44 9.872C77.656 10.5973 78.5947 11.6 79.256 12.88C79.9387 14.16 80.28 15.5893 80.28 17.168C80.28 18.7467 79.9387 20.176 79.256 21.456C78.5947 22.7147 77.656 23.7173 76.44 24.464C75.224 25.1893 73.816 25.552 72.216 25.552C71.1067 25.552 70.04 25.3173 69.016 24.848C67.992 24.3787 67.1067 23.7387 66.36 22.928V25.136H63V2.736H66.36V11.408C67.1067 10.576 67.992 9.9253 69.016 9.456C70.04 8.9867 71.1067 8.752 72.216 8.752ZM71.832 22.32C72.792 22.32 73.656 22.1067 74.424 21.68C75.2133 21.232 75.8213 20.6133 76.248 19.824C76.696 19.0347 76.92 18.1493 76.92 17.168C76.92 16.1867 76.696 15.3013 76.248 14.512C75.8213 13.7227 75.2133 13.1147 74.424 12.688C73.656 12.24 72.792 12.016 71.832 12.016C70.872 12.016 69.9867 12.24 69.176 12.688C68.3867 13.1147 67.7573 13.7227 67.288 14.512C66.84 15.28 66.616 16.1547 66.616 17.136C66.616 18.1173 66.84 19.0027 67.288 19.792C67.7573 20.5813 68.3867 21.2 69.176 21.648C69.9867 22.096 70.872 22.32 71.832 22.32ZM84.7673 5.968C84.1273 5.968 83.6153 5.7973 83.2313 5.456C82.8686 5.09333 82.6873 4.60267 82.6873 3.984C82.6873 3.36533 82.8686 2.88533 83.2313 2.544C83.6153 2.18133 84.1273 2 84.7673 2C85.4073 2 85.9086 2.18133 86.2713 2.544C86.6553 2.88533 86.8473 3.36533 86.8473 3.984C86.8473 4.60267 86.6553 5.09333 86.2713 5.456C85.9086 5.7973 85.4073 5.968 84.7673 5.968ZM83.0713 25.136V9.136H86.4313V25.136H83.0713ZM101.483 11.312L93.7065 21.936H101.803V25.136H89.0025V22.96L96.8745 12.336H89.3225V9.136H101.483V11.312ZM116.147 11.312L108.371 21.936H116.467V25.136H103.667V22.96L111.539 12.336H103.987V9.136H116.147V11.312ZM129.821 9.136H133.373L127.517 25.456C126.706 27.5253 125.607 29.0933 124.221 30.16C122.834 31.2267 121.223 31.6853 119.388 31.536V28.304C119.495 28.3253 119.655 28.336 119.868 28.336C121.746 28.336 123.197 27.1307 124.221 24.72L117.052 9.136H120.669L125.821 20.24L129.821 9.136ZM132.479 23.6C132.479 23.0027 132.639 22.544 132.959 22.224C133.279 21.8827 133.738 21.712 134.335 21.712C134.932 21.712 135.391 21.8827 135.711 22.224C136.031 22.544 136.191 23.0027 136.191 23.6C136.191 24.2187 136.031 24.6987 135.711 25.04C135.391 25.36 134.932 25.52 134.335 25.52C133.738 25.52 133.279 25.36 132.959 25.04C132.639 24.6987 132.479 24.2187 132.479 23.6Z" fill="#0B141F"/>
<path d="M15.4992 0H36.5808L21.0816 22.9729H0L15.4992 0Z" fill="#007E60"/>
<path d="M16.4224 25.102L10.4192 34H32.5008L48 11.0271H31.7024L22.2064 25.102H16.4224Z" fill="#FFD124"/>
</svg>
